<svg width="271" height="277" viewBox="0 0 271 277" fill="none" xmlns="http://www.w3.org/2000/svg">
<g filter="url(#filter0_d)">
<path d="M14.582 1.49999H94.082L133.082 74L136.082 84.5L140.082 74L179.582 1.49999H255.582L170.082 132L260.582 260H182.582C169.915 239 156.749 218.167 143.082 197.5C129.749 176.833 116.082 156 102.082 135L14.582 1.49999ZM85.582 260H10.082L87.082 150C90.4154 154 93.7487 158.833 97.082 164.5C100.749 170.167 103.582 176.5 105.582 183.5C107.915 190.167 109.082 197.167 109.082 204.5C109.082 211.833 107.415 219 104.082 226L85.582 260Z" fill="white"/>
<path d="M14.582 1.49999V0.49999H12.7309L13.7457 2.04817L14.582 1.49999ZM94.082 1.49999L94.9627 1.02625L94.6796 0.49999H94.082V1.49999ZM133.082 74L134.044 73.7253L134.014 73.6214L133.963 73.5263L133.082 74ZM136.082 84.5L135.121 84.7747L135.946 87.6652L137.017 84.856L136.082 84.5ZM140.082 74L139.204 73.5216L139.172 73.5809L139.148 73.644L140.082 74ZM179.582 1.49999V0.49999H178.988L178.704 1.02156L179.582 1.49999ZM255.582 1.49999L256.419 2.04802L257.433 0.49999H255.582V1.49999ZM170.082 132L169.246 131.452L168.872 132.021L169.266 132.577L170.082 132ZM260.582 260V261H262.514L261.399 259.423L260.582 260ZM182.582 260L181.726 260.516L182.017 261H182.582V260ZM143.082 197.5L142.242 198.042L142.248 198.052L143.082 197.5ZM102.082 135L101.246 135.548L101.25 135.555L102.082 135ZM85.582 260V261H86.1764L86.4604 260.478L85.582 260ZM10.082 260L9.2628 259.427L8.16138 261H10.082V260ZM87.082 150L87.8503 149.36L87.0129 148.355L86.2628 149.427L87.082 150ZM97.082 164.5L96.2201 165.007L96.2309 165.025L96.2425 165.043L97.082 164.5ZM105.582 183.5L104.621 183.775L104.629 183.803L104.638 183.83L105.582 183.5ZM104.082 226L104.96 226.478L104.973 226.454L104.985 226.43L104.082 226ZM14.582 2.49999H94.082V0.49999H14.582V2.49999ZM93.2014 1.97373L132.201 74.4737L133.963 73.5263L94.9627 1.02625L93.2014 1.97373ZM132.121 74.2747L135.121 84.7747L137.044 84.2253L134.044 73.7253L132.121 74.2747ZM137.017 84.856L141.017 74.356L139.148 73.644L135.148 84.144L137.017 84.856ZM140.96 74.4784L180.46 1.97842L178.704 1.02156L139.204 73.5216L140.96 74.4784ZM179.582 2.49999H255.582V0.49999H179.582V2.49999ZM254.746 0.951964L169.246 131.452L170.919 132.548L256.419 2.04802L254.746 0.951964ZM169.266 132.577L259.766 260.577L261.399 259.423L170.899 131.423L169.266 132.577ZM260.582 259H182.582V261H260.582V259ZM183.438 259.484C170.764 238.472 157.59 217.627 143.916 196.948L142.248 198.052C155.907 218.707 169.066 239.528 181.726 260.516L183.438 259.484ZM143.922 196.958C130.586 176.287 116.917 155.449 102.914 134.445L101.25 135.555C115.247 156.551 128.911 177.38 142.242 198.042L143.922 196.958ZM102.918 134.452L15.4184 0.951813L13.7457 2.04817L101.246 135.548L102.918 134.452ZM85.582 259H10.082V261H85.582V259ZM10.9013 260.573L87.9013 150.573L86.2628 149.427L9.2628 259.427L10.9013 260.573ZM86.3138 150.64C89.6047 154.589 92.9075 159.376 96.2201 165.007L97.944 163.993C94.5899 158.291 91.226 153.411 87.8503 149.36L86.3138 150.64ZM96.2425 165.043C99.8514 170.621 102.646 176.862 104.621 183.775L106.544 183.225C104.519 176.138 101.646 169.713 97.9216 163.957L96.2425 165.043ZM104.638 183.83C106.933 190.387 108.082 197.275 108.082 204.5H110.082C110.082 197.059 108.898 189.947 106.526 183.17L104.638 183.83ZM108.082 204.5C108.082 211.676 106.452 218.697 103.179 225.57L104.985 226.43C108.378 219.303 110.082 211.991 110.082 204.5H108.082ZM103.204 225.522L84.7036 259.522L86.4604 260.478L104.96 226.478L103.204 225.522Z" fill="white"/>
</g>
<defs>
<filter id="filter0_d" x="0.161133" y="0.5" width="270.352" height="276.5" filterUnits="userSpaceOnUse" color-interpolation-filters="sRGB">
<feFlood flood-opacity="0" result="BackgroundImageFix"/>
<feColorMatrix in="SourceAlpha" type="matrix" values="0 0 0 0 0 0 0 0 0 0 0 0 0 0 0 0 0 0 127 0"/>
<feOffset dy="8"/>
<feGaussianBlur stdDeviation="4"/>
<feColorMatrix type="matrix" values="0 0 0 0 0 0 0 0 0 0 0 0 0 0 0 0 0 0 0.25 0"/>
<feBlend mode="normal" in2="BackgroundImageFix" result="effect1_dropShadow"/>
<feBlend mode="normal" in="SourceGraphic" in2="effect1_dropShadow" result="shape"/>
</filter>
</defs>
</svg>
